# xmcd
#
# Track frame offsets:
#	150
#	13461
#	26738
#	38092
#	54660
#	74018
#	91356
#	100936
#	115900
#	132199
#	150522
#	165263
#	179126
#	195280
#	208764
#
# Disc length: 2956 seconds
# Revision: 0
# Processed by: cddbd v1.5.2PL0 Copyright (c) Steve Scherf et al.
# Submitted via: dBpowerAMP V12.0
#
DISCID=d00b8a0f
DTITLE=Various Artist - Lost And Found
DYEAR=2007
DGENRE=Grime
TTITLE0=Tinchy Stryder - Jump
TTITLE1=Tinchy Stryder - Paper Boy
TTITLE2=Tinchy Stryder - Underground
TTITLE3=Tinchy Stryder - Perfect World
TTITLE4=Tinchy Stryder (Feat. Fuda Guy) - On The Grind
TTITLE5=Tinchy Stryder (Feat. Wiley and Dirty Danger) - Summertime
TTITLE6=Tinchy Stryder - Listen
TTITLE7=Tinchy Stryder (Feat. Dirty Danger) - I Think I Know Him
TTITLE8=Tinchy Stryder - 24 Hours To Live
TTITLE9=Tinchy Stryder - Cycle
TTITLE10=Tinchy Stryder (Feat. Dillusion, Soljah Kid and Fuda Guy) - Nah Fam
TTITLE11=Tinchy Stryder - For The Game (Bonus Track)
TTITLE12=Tinchy Stryder - Listen Carefully (Bonus Track)
TTITLE13=Tinchy Stryder - Changes (Bonus Track)
TTITLE14=Tinchy Stryder - Boom (Bonus Track)
EXTD=
EXTT0=
EXTT1=
EXTT2=
EXTT3=
EXTT4=
EXTT5=
EXTT6=
EXTT7=
EXTT8=
EXTT9=
EXTT10=
EXTT11=
EXTT12=
EXTT13=
EXTT14=
PLAYORDER=
